<?xml version="1.0" encoding="UTF-8" standalone="no"?>
<!DOCTYPE svg PUBLIC "-//W3C//DTD SVG 1.1//EN" "http://www.w3.org/Graphics/SVG/1.1/DTD/svg11.dtd">
<svg width="100%" height="100%" viewBox="0 0 800 600" version="1.1" xmlns="http://www.w3.org/2000/svg" xmlns:xlink="http://www.w3.org/1999/xlink" xml:space="preserve" xmlns:serif="http://www.serif.com/" style="fill-rule:evenodd;clip-rule:evenodd;stroke-linejoin:round;stroke-miterlimit:2;">
    <g transform="matrix(277.744,0,0,277.744,194.314,354.021)">
        <path d="M0.981,-0.223C0.99,-0.223 0.997,-0.219 1.002,-0.211C1.006,-0.203 1.009,-0.192 1.009,-0.178C1.009,-0.152 1.003,-0.131 0.99,-0.116C0.958,-0.077 0.926,-0.048 0.893,-0.027C0.86,-0.006 0.822,0.005 0.777,0.005C0.734,0.005 0.697,-0.007 0.667,-0.03C0.636,-0.053 0.607,-0.093 0.58,-0.15C0.558,-0.195 0.541,-0.229 0.528,-0.251C0.515,-0.272 0.503,-0.288 0.491,-0.297C0.478,-0.306 0.463,-0.312 0.445,-0.314C0.442,-0.3 0.435,-0.256 0.422,-0.182C0.417,-0.149 0.413,-0.128 0.412,-0.121C0.405,-0.08 0.392,-0.049 0.372,-0.028C0.352,-0.006 0.322,0.005 0.281,0.005C0.236,0.005 0.197,-0.008 0.163,-0.035C0.128,-0.061 0.102,-0.098 0.083,-0.145C0.064,-0.192 0.055,-0.245 0.055,-0.305C0.055,-0.417 0.075,-0.514 0.114,-0.595C0.153,-0.676 0.207,-0.739 0.278,-0.782C0.348,-0.825 0.429,-0.846 0.521,-0.846C0.585,-0.846 0.639,-0.836 0.682,-0.817C0.725,-0.798 0.757,-0.771 0.779,-0.737C0.8,-0.703 0.81,-0.665 0.81,-0.622C0.81,-0.585 0.801,-0.548 0.784,-0.513C0.766,-0.477 0.739,-0.445 0.704,-0.418C0.669,-0.391 0.626,-0.37 0.575,-0.357C0.607,-0.348 0.632,-0.334 0.649,-0.315C0.666,-0.296 0.684,-0.267 0.701,-0.23C0.72,-0.19 0.738,-0.161 0.756,-0.142C0.775,-0.123 0.796,-0.114 0.82,-0.114C0.841,-0.114 0.862,-0.121 0.881,-0.136C0.9,-0.15 0.925,-0.174 0.954,-0.209C0.962,-0.218 0.971,-0.223 0.981,-0.223ZM0.307,-0.315C0.284,-0.315 0.269,-0.32 0.261,-0.331C0.252,-0.342 0.248,-0.354 0.248,-0.367C0.248,-0.383 0.253,-0.396 0.264,-0.405C0.274,-0.414 0.286,-0.419 0.299,-0.419L0.324,-0.419C0.335,-0.484 0.345,-0.541 0.354,-0.588C0.363,-0.631 0.391,-0.653 0.438,-0.653C0.476,-0.653 0.495,-0.636 0.495,-0.602C0.495,-0.595 0.495,-0.589 0.494,-0.585L0.464,-0.419C0.5,-0.421 0.533,-0.43 0.563,-0.445C0.592,-0.46 0.616,-0.482 0.633,-0.509C0.651,-0.536 0.66,-0.567 0.66,-0.602C0.66,-0.644 0.646,-0.677 0.617,-0.701C0.588,-0.725 0.546,-0.737 0.491,-0.737C0.426,-0.737 0.369,-0.721 0.32,-0.689C0.271,-0.656 0.232,-0.608 0.205,-0.545C0.178,-0.481 0.164,-0.403 0.164,-0.312C0.164,-0.269 0.168,-0.233 0.177,-0.202C0.186,-0.171 0.196,-0.148 0.209,-0.133C0.222,-0.118 0.234,-0.11 0.245,-0.11C0.254,-0.11 0.261,-0.114 0.267,-0.123C0.272,-0.132 0.277,-0.146 0.28,-0.165L0.307,-0.315Z" style="fill:rgb(75,75,75);fill-rule:nonzero;"/>
    </g>
    <g transform="matrix(277.744,0,0,277.744,438.728,354.021)">
        <path d="M0.444,-0.305C0.444,-0.252 0.432,-0.203 0.407,-0.156C0.383,-0.109 0.351,-0.07 0.311,-0.041C0.27,-0.012 0.227,0.004 0.181,0.005C0.172,0.134 0.153,0.241 0.122,0.327C0.091,0.414 0.046,0.457 -0.013,0.457C-0.049,0.457 -0.076,0.444 -0.093,0.418C-0.11,0.392 -0.119,0.356 -0.119,0.31C-0.119,0.245 -0.104,0.168 -0.074,0.081C-0.044,-0.006 0.002,-0.101 0.065,-0.206C0.065,-0.303 0.064,-0.371 0.063,-0.409C0.062,-0.428 0.07,-0.444 0.086,-0.455C0.102,-0.466 0.122,-0.472 0.146,-0.472C0.16,-0.472 0.17,-0.469 0.177,-0.464C0.183,-0.458 0.186,-0.447 0.187,-0.43C0.187,-0.413 0.187,-0.401 0.188,-0.393C0.209,-0.42 0.23,-0.439 0.251,-0.451C0.272,-0.462 0.294,-0.468 0.317,-0.468C0.354,-0.468 0.385,-0.453 0.408,-0.423C0.432,-0.393 0.444,-0.354 0.444,-0.305ZM0.186,-0.091C0.21,-0.096 0.232,-0.11 0.253,-0.131C0.273,-0.152 0.289,-0.178 0.301,-0.209C0.313,-0.239 0.319,-0.272 0.319,-0.306C0.319,-0.326 0.315,-0.341 0.307,-0.352C0.299,-0.362 0.288,-0.367 0.275,-0.367C0.251,-0.367 0.222,-0.342 0.188,-0.291C0.187,-0.262 0.187,-0.219 0.187,-0.162C0.187,-0.131 0.187,-0.108 0.186,-0.091ZM-0.005,0.359C0.013,0.359 0.028,0.32 0.04,0.241C0.052,0.163 0.06,0.066 0.063,-0.051C0.034,0.016 0.012,0.079 -0.005,0.14C-0.022,0.201 -0.03,0.252 -0.03,0.293C-0.03,0.314 -0.027,0.331 -0.022,0.342C-0.017,0.353 -0.012,0.359 -0.005,0.359Z" style="fill:rgb(75,75,75);fill-rule:nonzero;"/>
    </g>
    <g transform="matrix(204.985,0,0,204.985,-6.1999,349.658)">
        <path d="M0.117,-0.224C0.106,-0.228 0.097,-0.235 0.091,-0.245C0.085,-0.255 0.082,-0.266 0.082,-0.279C0.082,-0.295 0.087,-0.311 0.096,-0.326C0.105,-0.341 0.118,-0.351 0.133,-0.356L0.579,-0.511C0.587,-0.514 0.595,-0.515 0.603,-0.515C0.617,-0.515 0.628,-0.51 0.636,-0.501C0.644,-0.492 0.648,-0.48 0.648,-0.467C0.648,-0.454 0.644,-0.443 0.636,-0.432C0.629,-0.421 0.617,-0.412 0.602,-0.407L0.252,-0.289L0.572,-0.17C0.583,-0.166 0.592,-0.16 0.598,-0.151C0.604,-0.142 0.607,-0.133 0.607,-0.123C0.607,-0.108 0.602,-0.094 0.591,-0.082C0.58,-0.069 0.566,-0.063 0.549,-0.063C0.542,-0.063 0.534,-0.065 0.525,-0.068L0.117,-0.224Z" style="fill:white;fill-rule:nonzero;"/>
    </g>
    <g transform="matrix(1.37585,0,0,1.37585,-393.19,-328.118)">
        <text x="719.521px" y="480px" style="font-family:'Pacifico-Regular', 'Pacifico';font-size:85.015px;fill:rgb(255,247,247);">/</text>
    </g>
    <g transform="matrix(277.744,0,0,277.744,164.039,354.021)">
        <path d="M0.981,-0.223C0.99,-0.223 0.997,-0.219 1.002,-0.211C1.006,-0.203 1.009,-0.192 1.009,-0.178C1.009,-0.152 1.003,-0.131 0.99,-0.116C0.958,-0.077 0.926,-0.048 0.893,-0.027C0.86,-0.006 0.822,0.005 0.777,0.005C0.734,0.005 0.697,-0.007 0.667,-0.03C0.636,-0.053 0.607,-0.093 0.58,-0.15C0.558,-0.195 0.541,-0.229 0.528,-0.251C0.515,-0.272 0.503,-0.288 0.491,-0.297C0.478,-0.306 0.463,-0.312 0.445,-0.314C0.442,-0.3 0.435,-0.256 0.422,-0.182C0.417,-0.149 0.413,-0.128 0.412,-0.121C0.405,-0.08 0.392,-0.049 0.372,-0.028C0.352,-0.006 0.322,0.005 0.281,0.005C0.236,0.005 0.197,-0.008 0.163,-0.035C0.128,-0.061 0.102,-0.098 0.083,-0.145C0.064,-0.192 0.055,-0.245 0.055,-0.305C0.055,-0.417 0.075,-0.514 0.114,-0.595C0.153,-0.676 0.207,-0.739 0.278,-0.782C0.348,-0.825 0.429,-0.846 0.521,-0.846C0.585,-0.846 0.639,-0.836 0.682,-0.817C0.725,-0.798 0.757,-0.771 0.779,-0.737C0.8,-0.703 0.81,-0.665 0.81,-0.622C0.81,-0.585 0.801,-0.548 0.784,-0.513C0.766,-0.477 0.739,-0.445 0.704,-0.418C0.669,-0.391 0.626,-0.37 0.575,-0.357C0.607,-0.348 0.632,-0.334 0.649,-0.315C0.666,-0.296 0.684,-0.267 0.701,-0.23C0.72,-0.19 0.738,-0.161 0.756,-0.142C0.775,-0.123 0.796,-0.114 0.82,-0.114C0.841,-0.114 0.862,-0.121 0.881,-0.136C0.9,-0.15 0.925,-0.174 0.954,-0.209C0.962,-0.218 0.971,-0.223 0.981,-0.223ZM0.307,-0.315C0.284,-0.315 0.269,-0.32 0.261,-0.331C0.252,-0.342 0.248,-0.354 0.248,-0.367C0.248,-0.383 0.253,-0.396 0.264,-0.405C0.274,-0.414 0.286,-0.419 0.299,-0.419L0.324,-0.419C0.335,-0.484 0.345,-0.541 0.354,-0.588C0.363,-0.631 0.391,-0.653 0.438,-0.653C0.476,-0.653 0.495,-0.636 0.495,-0.602C0.495,-0.595 0.495,-0.589 0.494,-0.585L0.464,-0.419C0.5,-0.421 0.533,-0.43 0.563,-0.445C0.592,-0.46 0.616,-0.482 0.633,-0.509C0.651,-0.536 0.66,-0.567 0.66,-0.602C0.66,-0.644 0.646,-0.677 0.617,-0.701C0.588,-0.725 0.546,-0.737 0.491,-0.737C0.426,-0.737 0.369,-0.721 0.32,-0.689C0.271,-0.656 0.232,-0.608 0.205,-0.545C0.178,-0.481 0.164,-0.403 0.164,-0.312C0.164,-0.269 0.168,-0.233 0.177,-0.202C0.186,-0.171 0.196,-0.148 0.209,-0.133C0.222,-0.118 0.234,-0.11 0.245,-0.11C0.254,-0.11 0.261,-0.114 0.267,-0.123C0.272,-0.132 0.277,-0.146 0.28,-0.165L0.307,-0.315Z" style="fill:white;fill-rule:nonzero;"/>
    </g>
    <g transform="matrix(277.744,0,0,277.744,408.454,354.021)">
        <path d="M0.444,-0.305C0.444,-0.252 0.432,-0.203 0.407,-0.156C0.383,-0.109 0.351,-0.07 0.311,-0.041C0.27,-0.012 0.227,0.004 0.181,0.005C0.172,0.134 0.153,0.241 0.122,0.327C0.091,0.414 0.046,0.457 -0.013,0.457C-0.049,0.457 -0.076,0.444 -0.093,0.418C-0.11,0.392 -0.119,0.356 -0.119,0.31C-0.119,0.245 -0.104,0.168 -0.074,0.081C-0.044,-0.006 0.002,-0.101 0.065,-0.206C0.065,-0.303 0.064,-0.371 0.063,-0.409C0.062,-0.428 0.07,-0.444 0.086,-0.455C0.102,-0.466 0.122,-0.472 0.146,-0.472C0.16,-0.472 0.17,-0.469 0.177,-0.464C0.183,-0.458 0.186,-0.447 0.187,-0.43C0.187,-0.413 0.187,-0.401 0.188,-0.393C0.209,-0.42 0.23,-0.439 0.251,-0.451C0.272,-0.462 0.294,-0.468 0.317,-0.468C0.354,-0.468 0.385,-0.453 0.408,-0.423C0.432,-0.393 0.444,-0.354 0.444,-0.305ZM0.186,-0.091C0.21,-0.096 0.232,-0.11 0.253,-0.131C0.273,-0.152 0.289,-0.178 0.301,-0.209C0.313,-0.239 0.319,-0.272 0.319,-0.306C0.319,-0.326 0.315,-0.341 0.307,-0.352C0.299,-0.362 0.288,-0.367 0.275,-0.367C0.251,-0.367 0.222,-0.342 0.188,-0.291C0.187,-0.262 0.187,-0.219 0.187,-0.162C0.187,-0.131 0.187,-0.108 0.186,-0.091ZM-0.005,0.359C0.013,0.359 0.028,0.32 0.04,0.241C0.052,0.163 0.06,0.066 0.063,-0.051C0.034,0.016 0.012,0.079 -0.005,0.14C-0.022,0.201 -0.03,0.252 -0.03,0.293C-0.03,0.314 -0.027,0.331 -0.022,0.342C-0.017,0.353 -0.012,0.359 -0.005,0.359Z" style="fill:white;fill-rule:nonzero;"/>
    </g>
    <g transform="matrix(204.985,0,0,204.985,659.636,337.347)">
        <path d="M0.136,-0.068C0.128,-0.065 0.12,-0.064 0.112,-0.064C0.098,-0.064 0.087,-0.069 0.079,-0.078C0.071,-0.087 0.067,-0.099 0.067,-0.112C0.067,-0.125 0.071,-0.137 0.079,-0.148C0.086,-0.159 0.098,-0.167 0.113,-0.172L0.463,-0.29L0.143,-0.409C0.132,-0.413 0.123,-0.419 0.117,-0.428C0.111,-0.437 0.108,-0.446 0.108,-0.456C0.108,-0.471 0.114,-0.485 0.125,-0.498C0.136,-0.51 0.149,-0.516 0.166,-0.516C0.173,-0.516 0.181,-0.514 0.19,-0.511L0.598,-0.355C0.609,-0.351 0.618,-0.344 0.624,-0.334C0.63,-0.324 0.633,-0.313 0.633,-0.3C0.633,-0.284 0.628,-0.269 0.619,-0.254C0.61,-0.238 0.597,-0.228 0.582,-0.223L0.136,-0.068Z" style="fill:white;fill-rule:nonzero;"/>
    </g>
</svg>
